<?xml version="1.0" encoding="utf-8"?>
<!-- Generator: Adobe Illustrator 27.1.0, SVG Export Plug-In . SVG Version: 6.00 Build 0)  -->
<svg version="1.1" id="Capa_1" xmlns="http://www.w3.org/2000/svg" xmlns:xlink="http://www.w3.org/1999/xlink" x="0px" y="0px"
	 viewBox="0 0 29.7 42.9" style="enable-background:new 0 0 29.7 42.9;" xml:space="preserve">
<style type="text/css">
	.st0{fill:#57B089;}
	.st1{fill:#EABD26;}
	.st2{fill:none;stroke:#EABD26;stroke-width:4.920000e-02;stroke-miterlimit:3.864;}
	.st3{fill-rule:evenodd;clip-rule:evenodd;}
</style>
<g>
	<g>
		<path class="st0" d="M21.8,37.8l2.8-4.2h-3.7L20.2,35c-0.1,0.2-0.1,0.3-0.2,0.4c0,0.1-0.1,0.2-0.1,0.3c0-0.2-0.1-0.4-0.2-0.7
			c0,0,0-0.1,0-0.1L19,33.5h-3.7l2.8,4.2l-2.8,4.2v-1.8h-2.9v-1H15v-2.3h-2.6V36h2.9v-2.5H9.2l0,9.1l5.6,0l0,0h3.7l1-2
			c0.1-0.2,0.2-0.4,0.2-0.5c0-0.1,0.1-0.2,0.1-0.3c0,0.1,0,0.2,0.1,0.3s0.1,0.3,0.2,0.5l1,2H25L21.8,37.8z"/>
		<rect x="10.6" y="5.6" class="st1" width="2" height="2.1"/>
		<rect x="14.1" y="5.7" class="st1" width="2" height="2.1"/>
		<rect x="17.7" y="5.7" class="st1" width="2" height="2.1"/>
		<rect x="21.5" y="5.6" class="st1" width="2" height="2.1"/>
		<polygon class="st1" points="10.9,8.9 9.6,11.2 23.5,11.2 23.5,9 		"/>
		<g>
			<path class="st1" d="M23.6,2.1h-18c-0.2,0-0.3-0.1-0.5-0.1C2.4,2.1,0.2,4.3,0.2,7c0,2.7,2.2,4.9,4.9,4.9c2.7,0,4.9-2.2,4.9-4.9
				c0-0.8-0.2-1.6-0.6-2.3h14.1V2.1z M5.2,10.5c-1.9,0-3.4-1.6-3.4-3.5s1.5-3.5,3.4-3.5c0.2,0,0.5,0,0.7,0.1C6,3.6,6,3.7,6.1,3.7
				c0.1,0,0.3,0.1,0.4,0.2c0.1,0,0.2,0.1,0.2,0.1C6.9,4,7.1,4.1,7.2,4.2c0.1,0.1,0.1,0.1,0.2,0.2c0.1,0.1,0.2,0.2,0.3,0.3
				C8.3,5.3,8.6,6.1,8.6,7C8.6,8.9,7.1,10.5,5.2,10.5z"/>
			<polygon class="st1" points="23.5,1.7 23.5,0.2 6.4,0.2 8,1.7 			"/>
		</g>
		<path class="st1" d="M2.9,7c0-1.2,1-2.2,2.2-2.2s2.2,1,2.2,2.2s-1,2.2-2.2,2.2C3.9,9.3,2.9,8.3,2.9,7"/>
		<path class="st1" d="M7.4,12.3l6.6,0v17.8c0.4,0.8,1.2,0.9,1.9,0.9c2.7,0,2.3-5.1,2.3-6.2c0-0.6-0.1-9.2-0.1-11.3h-1.8
			c0-0.5,0-0.7,0-1.1H23v19.8h1.5c0,0.4,0,0.5,0,0.9l-6.2,0v-2.5c-0.2,1.7-9.3,4.7-9-1.9l0-15.5c-0.5,0-1.2,0-1.8,0V12.3z"/>
		<path class="st2" d="M7.4,12.3l6.6,0v17.8c0.4,0.8,1.2,0.9,1.9,0.9c2.7,0,2.3-5.1,2.3-6.2c0-0.6-0.1-9.2-0.1-11.3h-1.8
			c0-0.5,0-0.7,0-1.1H23v19.8h1.5c0,0.4,0,0.5,0,0.9l-6.2,0v-2.5c-0.2,1.7-9.3,4.7-9-1.9l0-15.5c-0.5,0-1.2,0-1.8,0V12.3z"/>
	</g>
	<g>
		<path d="M28.9,42.7h-1.6v-0.3H29c0.1,0,0.2,0,0.2-0.1s0.1-0.1,0.1-0.2c0-0.1,0-0.2-0.1-0.2c0,0-0.1-0.1-0.2-0.1h-1.6v-0.3h1.6
			c0.2,0,0.4,0,0.5,0.1c0.1,0.1,0.1,0.2,0.1,0.4c0,0.2,0,0.3-0.1,0.4C29.3,42.7,29.2,42.7,28.9,42.7"/>
		<polygon points="29.5,40.8 27.4,40.8 27.4,40.5 28.9,39.9 27.4,39.9 27.4,39.7 29.5,39.7 29.5,39.9 28,40.5 29.5,40.5 		"/>
		<rect x="27.4" y="38.6" width="2.2" height="0.3"/>
		<polygon points="29.5,37.2 29.5,37.4 27.4,37.9 27.4,37.6 28.8,37.3 27.4,37 27.4,36.7 		"/>
		<polygon points="29.5,36.1 27.4,36.1 27.4,35.2 27.6,35.2 27.6,35.8 28.3,35.8 28.3,35.3 28.5,35.3 28.5,35.8 29.3,35.8 
			29.3,35.2 29.5,35.2 		"/>
		<path class="st3" d="M28.3,34.2L28.3,34.2c0-0.2,0-0.3-0.1-0.3c-0.1,0-0.1-0.1-0.3-0.1c-0.1,0-0.2,0-0.2,0.1c0,0-0.1,0.1-0.1,0.3
			v0.1L28.3,34.2L28.3,34.2z M28.5,34.2h1.1v0.3h-2.2v-0.3c0-0.2,0-0.4,0.1-0.5c0.1-0.1,0.2-0.2,0.4-0.2c0.2,0,0.3,0,0.4,0.1
			c0.1,0.1,0.1,0.2,0.2,0.3l1.1-0.5v0.3L28.5,34.2L28.5,34.2z"/>
		<path d="M29.2,32.8c0-0.1,0.1-0.1,0.1-0.2c0-0.1,0-0.1,0-0.2c0-0.1,0-0.2-0.1-0.2s-0.1-0.1-0.2-0.1c-0.1,0-0.3,0.1-0.4,0.3
			c0,0,0,0,0,0c-0.1,0.1-0.2,0.2-0.3,0.3s-0.2,0.1-0.3,0.1c-0.2,0-0.3,0-0.4-0.2c-0.1-0.1-0.2-0.2-0.2-0.4c0-0.1,0-0.1,0-0.2
			s0-0.1,0.1-0.2h0.3c0,0.1-0.1,0.1-0.1,0.2c0,0,0,0.1,0,0.2c0,0.1,0,0.2,0.1,0.2c0,0,0.1,0.1,0.2,0.1c0.1,0,0.3-0.1,0.4-0.3
			c0,0,0,0,0,0c0.1-0.1,0.2-0.2,0.3-0.3s0.2-0.1,0.3-0.1c0.2,0,0.3,0,0.4,0.2c0.1,0.1,0.2,0.2,0.2,0.4c0,0.1,0,0.1,0,0.2
			s0,0.1-0.1,0.2L29.2,32.8L29.2,32.8z"/>
		<rect x="27.4" y="30.9" width="2.2" height="0.3"/>
		<path class="st3" d="M29.3,29.8v-0.2c0-0.2-0.1-0.3-0.2-0.3s-0.3-0.1-0.6-0.1s-0.5,0-0.6,0.1c-0.1,0.1-0.2,0.2-0.2,0.3v0.2H29.3z
			 M29.5,30.1h-2.2v-0.4c0-0.3,0.1-0.5,0.2-0.6s0.4-0.2,0.8-0.2s0.7,0.1,0.8,0.2s0.2,0.3,0.2,0.6L29.5,30.1L29.5,30.1z"/>
		<path class="st3" d="M27.9,27.7l0.9,0.2v-0.4L27.9,27.7z M29.5,28.3l-2.2-0.5v-0.3l2.2-0.5v0.3l-0.4,0.1v0.5l0.4,0.1V28.3z"/>
		<path class="st3" d="M29.3,26.1V26c0-0.2-0.1-0.3-0.2-0.4s-0.3-0.1-0.6-0.1s-0.5,0-0.6,0.1c-0.1,0.1-0.2,0.2-0.2,0.4v0.1H29.3z
			 M29.5,26.4h-2.2V26c0-0.3,0.1-0.5,0.2-0.6s0.4-0.2,0.8-0.2s0.7,0.1,0.8,0.2s0.2,0.3,0.2,0.6L29.5,26.4L29.5,26.4z"/>
		<path class="st3" d="M29.3,23.2V23c0-0.2-0.1-0.3-0.2-0.4s-0.3-0.1-0.6-0.1s-0.5,0-0.6,0.1c-0.1,0.1-0.2,0.2-0.2,0.4v0.1H29.3z
			 M29.5,23.5h-2.2v-0.4c0-0.3,0.1-0.5,0.2-0.6s0.4-0.2,0.8-0.2s0.7,0.1,0.8,0.2s0.2,0.3,0.2,0.6L29.5,23.5L29.5,23.5z"/>
		<polygon points="29.5,21.6 27.4,21.6 27.4,20.7 27.6,20.7 27.6,21.3 28.3,21.3 28.3,20.7 28.5,20.7 28.5,21.3 29.3,21.3 
			29.3,20.7 29.5,20.7 		"/>
		<polygon points="29.5,19 27.4,19 27.4,18.1 27.6,18.1 27.6,18.7 28.3,18.7 28.3,18.2 28.5,18.2 28.5,18.7 29.3,18.7 29.3,18.1 
			29.5,18.1 		"/>
		<polygon points="29.5,17.5 28.4,17.1 27.4,17.5 27.4,17.2 28.1,17 27.4,16.8 27.4,16.5 28.4,16.8 29.5,16.4 29.5,16.8 28.8,17 
			29.5,17.2 		"/>
		<polygon points="29.5,15.6 27.6,15.6 27.6,16 27.4,16 27.4,14.9 27.6,14.9 27.6,15.3 29.5,15.3 		"/>
		<path class="st3" d="M28.3,13.9L28.3,13.9c0-0.2,0-0.3-0.1-0.3c-0.1,0-0.1-0.1-0.3-0.1c-0.1,0-0.2,0-0.2,0.1c0,0-0.1,0.1-0.1,0.3
			v0.1H28.3z M28.5,13.9h1.1v0.3h-2.2v-0.4c0-0.2,0-0.4,0.1-0.5c0.1-0.1,0.2-0.1,0.4-0.1c0.2,0,0.3,0,0.4,0.1
			c0.1,0.1,0.1,0.2,0.2,0.3l1.1-0.5v0.3L28.5,13.9L28.5,13.9z"/>
		<polygon points="29.5,12.5 27.4,12.5 27.4,11.6 27.6,11.6 27.6,12.2 28.3,12.2 28.3,11.7 28.5,11.7 28.5,12.2 29.3,12.2 
			29.3,11.6 29.5,11.6 		"/>
		<polygon points="29.5,11 27.4,10.8 27.4,10.5 28.9,10.2 27.4,9.9 27.4,9.7 29.5,9.5 29.5,9.8 28,9.9 29.5,10.1 29.5,10.3 28,10.6 
			29.5,10.7 		"/>
		<path class="st3" d="M27.9,8.3l0.9,0.2V8.1L27.9,8.3z M29.5,8.9l-2.2-0.5V8.2l2.2-0.5V8l-0.4,0.1v0.5l0.4,0.1V8.9z"/>
		<path class="st3" d="M29.3,6.7V6.6c0-0.2-0.1-0.3-0.2-0.4c-0.1-0.1-0.3-0.1-0.6-0.1s-0.5,0-0.6,0.1c-0.1,0.1-0.2,0.2-0.2,0.4v0.1
			H29.3z M29.5,7h-2.2V6.6c0-0.3,0.1-0.5,0.2-0.6s0.4-0.2,0.8-0.2s0.7,0.1,0.8,0.2s0.2,0.3,0.2,0.6L29.5,7L29.5,7z"/>
		<path d="M28.9,5.1h-1.6V4.8H29c0.1,0,0.2,0,0.2-0.1s0.1-0.1,0.1-0.2c0-0.1,0-0.2-0.1-0.2c0-0.1-0.1-0.1-0.2-0.1h-1.6V4h1.6
			c0.2,0,0.4,0.1,0.5,0.1c0.1,0.1,0.1,0.2,0.1,0.4c0,0.2,0,0.3-0.1,0.4C29.3,5.1,29.2,5.1,28.9,5.1"/>
		<path class="st3" d="M28.3,2.9L28.3,2.9c0-0.2,0-0.3-0.1-0.3c-0.1-0.1-0.1-0.1-0.3-0.1c-0.1,0-0.2,0-0.2,0.1
			c0,0.1-0.1,0.1-0.1,0.3v0.1H28.3z M28.5,2.9h1.1v0.3h-2.2V2.8c0-0.2,0-0.4,0.1-0.5c0.1-0.1,0.2-0.2,0.4-0.2c0.2,0,0.3,0,0.4,0.1
			c0.1,0.1,0.1,0.2,0.2,0.3l1.1-0.5v0.3L28.5,2.9L28.5,2.9z"/>
		<path class="st3" d="M27.9,1l0.9,0.2V0.8L27.9,1z M29.5,1.6l-2.2-0.5V0.8l2.2-0.5v0.3l-0.4,0.1v0.5l0.4,0.1V1.6z"/>
	</g>
</g>
</svg>
