<?xml version="1.0" encoding="utf-8"?>
<!-- Generator: Adobe Illustrator 27.1.0, SVG Export Plug-In . SVG Version: 6.00 Build 0)  -->
<svg version="1.1" id="Capa_1" xmlns="http://www.w3.org/2000/svg" xmlns:xlink="http://www.w3.org/1999/xlink" x="0px" y="0px"
	 viewBox="0 0 35.55 48.35" style="enable-background:new 0 0 35.55 48.35;" xml:space="preserve">
<style type="text/css">
	.st0{fill:#57B089;}
	.st1{fill:#EABD26;}
	.st2{fill-rule:evenodd;clip-rule:evenodd;}
</style>
<g>
	<path class="st0" d="M24.43,40.57l2.83-4.23h-3.7l-0.69,1.48c-0.07,0.17-0.13,0.3-0.17,0.42c-0.04,0.11-0.08,0.22-0.11,0.33
		c-0.04-0.17-0.13-0.39-0.25-0.67c-0.02-0.04-0.03-0.06-0.04-0.08l-0.67-1.48h-3.71l2.83,4.23l-2.76,4.15v-1.79h-2.93v-0.95h2.59
		v-2.31h-2.59v-0.87h2.86v-2.45h-6.05l0.03,9.06l5.65-0.01l-0.01,0.01h3.72l1.03-2.05c0.1-0.21,0.17-0.36,0.22-0.47
		c0.04-0.1,0.07-0.2,0.09-0.29c0.02,0.09,0.05,0.19,0.1,0.31s0.11,0.26,0.2,0.45l1.04,2.05h3.73L24.43,40.57z"/>
</g>
<g>
	<rect x="13.26" y="8.45" class="st1" width="2" height="2.1"/>
</g>
<g>
	<rect x="16.76" y="8.5" class="st1" width="2" height="2.1"/>
</g>
<g>
	<rect x="20.34" y="8.53" class="st1" width="2" height="2.1"/>
</g>
<g>
	<rect x="24.11" y="8.43" class="st1" width="2" height="2.1"/>
</g>
<g>
	<polygon class="st1" points="13.53,11.75 12.18,14.01 26.13,14.01 26.13,11.78 	"/>
</g>
<g>
	<g>
		<path class="st1" d="M26.27,4.94H8.29c-0.17-0.02-0.33-0.05-0.5-0.05c-2.73,0-4.93,2.21-4.93,4.93c0,2.73,2.21,4.93,4.93,4.93
			c2.73,0,4.94-2.21,4.94-4.93c0-0.82-0.22-1.59-0.58-2.27h14.12V4.94z M7.79,13.3c-1.9,0-3.44-1.56-3.44-3.48s1.54-3.48,3.44-3.48
			c0.25,0,0.49,0.03,0.73,0.08C8.59,6.44,8.67,6.48,8.75,6.5c0.15,0.04,0.3,0.09,0.44,0.15c0.09,0.04,0.17,0.09,0.25,0.14
			C9.56,6.86,9.68,6.92,9.79,7c0.08,0.06,0.15,0.12,0.23,0.19c0.1,0.09,0.2,0.18,0.29,0.28c0.57,0.62,0.92,1.44,0.92,2.35
			C11.23,11.74,9.69,13.3,7.79,13.3z"/>
	</g>
	<g>
		<polygon class="st1" points="26.1,4.51 26.1,3.01 9.05,3.04 10.61,4.51 		"/>
	</g>
</g>
<g>
	<path class="st1" d="M5.54,9.82c0-1.24,1.01-2.25,2.25-2.25c1.24,0,2.25,1.01,2.25,2.25c0,1.24-1.01,2.25-2.25,2.25
		C6.54,12.07,5.54,11.07,5.54,9.82"/>
</g>
<g>
	<path class="st1" d="M10.06,15.1l6.57-0.01v17.79c0.36,0.81,1.24,0.91,1.9,0.91c2.71,0,2.28-5.12,2.27-6.25
		c-0.01-0.57-0.07-9.24-0.07-11.34h-1.84c-0.02-0.46,0-0.67,0-1.08l6.73,0v19.84l1.54,0c0,0.36-0.01,0.49-0.01,0.89l-6.25,0.02
		v-2.49c-0.18,1.68-9.34,4.73-8.98-1.89l-0.04-15.53c-0.51,0.04-1.2,0.03-1.82,0V15.1z"/>
</g>
<g>
	<path class="st1" d="M20.88,35.9v-2.34c-0.39,0.92-2.93,2.02-5.13,2.02c-0.17,0-0.33-0.01-0.49-0.02
		c-1.05-0.08-1.87-0.43-2.44-1.03c-0.67-0.7-0.98-1.72-0.9-3.05l-0.04-15.5c-0.5,0.03-1.16,0.03-1.8,0l-0.02,0v-0.91h0.02l6.6-0.01
		v17.81c0.35,0.79,1.19,0.89,1.88,0.89c0.49,0,0.91-0.17,1.25-0.52c1.15-1.19,1.05-4.1,1.01-5.34c-0.01-0.15-0.01-0.27-0.01-0.37
		c-0.01-0.57-0.07-9.19-0.07-11.32h-1.84l0-0.02c-0.01-0.29-0.01-0.48,0-0.68c0-0.12,0.01-0.25,0-0.4v-0.02l6.78,0v19.84l1.54,0
		v0.02c0,0.14,0,0.24,0,0.34c0,0.16,0,0.3,0,0.55v0.02h-0.02L20.88,35.9z M20.88,33.37l0.05,0v2.47l6.21-0.02c0-0.23,0-0.37,0-0.53
		c0-0.09,0-0.19,0-0.32l-1.54,0V15.14l-6.68,0c0,0.14,0,0.26,0,0.38c0,0.2-0.01,0.38,0,0.66h1.84v0.02
		c-0.01,2.09,0.06,10.77,0.07,11.34c0,0.09,0.01,0.22,0.01,0.37c0.04,1.25,0.14,4.17-1.02,5.37c-0.34,0.36-0.77,0.54-1.28,0.54
		c-0.65,0-1.56-0.1-1.92-0.92l0-0.01V15.12l-6.52,0.01v0.81c0.64,0.03,1.31,0.03,1.79,0l0.03,0v0.03l0.04,15.53
		c-0.18,3.25,1.99,3.92,3.3,4.02c0.17,0.01,0.35,0.02,0.52,0.02C18.23,35.54,20.79,34.22,20.88,33.37z"/>
</g>
<g>
	<path d="M31.56,45.53h-1.59v-0.29h1.62c0.1,0,0.18-0.02,0.23-0.07c0.05-0.05,0.08-0.12,0.08-0.21c0-0.1-0.03-0.17-0.08-0.21
		c-0.05-0.05-0.12-0.07-0.23-0.07h-1.62v-0.29h1.59c0.21,0,0.37,0.05,0.46,0.14c0.1,0.09,0.14,0.24,0.14,0.44
		c0,0.2-0.05,0.34-0.14,0.43C31.93,45.48,31.78,45.53,31.56,45.53"/>
</g>
<g>
	<polygon points="32.16,43.6 29.99,43.6 29.99,43.32 31.49,42.75 29.99,42.75 29.99,42.47 32.16,42.47 32.16,42.75 30.64,43.32 
		32.16,43.32 	"/>
</g>
<g>
	<rect x="29.99" y="41.38" width="2.17" height="0.29"/>
</g>
<g>
	<polygon points="32.16,40.01 32.16,40.26 29.99,40.73 29.99,40.44 31.46,40.13 29.99,39.83 29.99,39.53 	"/>
</g>
<g>
	<polygon points="32.16,38.89 29.99,38.89 29.99,38.03 30.25,38.03 30.25,38.6 30.89,38.6 30.89,38.08 31.15,38.08 31.15,38.6 
		31.89,38.6 31.89,38.03 32.16,38.03 	"/>
</g>
<g>
	<path class="st2" d="M30.93,37.01v-0.09c0-0.12-0.03-0.2-0.08-0.25c-0.06-0.05-0.15-0.07-0.29-0.07c-0.12,0-0.2,0.02-0.24,0.07
		c-0.04,0.05-0.07,0.14-0.07,0.27v0.08H30.93z M31.1,37.01h1.06v0.29h-2.17v-0.35c0-0.24,0.04-0.4,0.13-0.5
		c0.09-0.1,0.23-0.15,0.44-0.15c0.16,0,0.29,0.04,0.38,0.1c0.09,0.07,0.14,0.17,0.16,0.31l1.07-0.52v0.31L31.1,37.01L31.1,37.01z"/>
</g>
<g>
	<path d="M31.78,35.62c0.04-0.07,0.07-0.13,0.09-0.19c0.02-0.06,0.03-0.11,0.03-0.16c0-0.09-0.03-0.16-0.08-0.21
		c-0.05-0.05-0.12-0.08-0.21-0.08c-0.13,0-0.27,0.1-0.44,0.3c-0.02,0.02-0.03,0.04-0.04,0.05c-0.11,0.13-0.2,0.22-0.29,0.27
		c-0.09,0.05-0.19,0.08-0.3,0.08c-0.16,0-0.3-0.05-0.41-0.16c-0.11-0.1-0.16-0.23-0.16-0.38c0-0.07,0.01-0.13,0.02-0.2
		s0.04-0.12,0.07-0.19h0.29c-0.04,0.06-0.07,0.11-0.09,0.17c-0.02,0.05-0.03,0.11-0.03,0.16c0,0.09,0.03,0.16,0.08,0.22
		c0.05,0.05,0.13,0.08,0.22,0.08c0.12,0,0.27-0.11,0.44-0.32c0.02-0.02,0.03-0.04,0.04-0.05c0.1-0.12,0.2-0.21,0.29-0.26
		c0.09-0.05,0.2-0.08,0.32-0.08c0.17,0,0.3,0.05,0.41,0.16c0.11,0.11,0.16,0.24,0.16,0.41c0,0.06-0.01,0.12-0.03,0.18
		c-0.02,0.06-0.05,0.13-0.08,0.19H31.78z"/>
</g>
<g>
	<rect x="29.99" y="33.68" width="2.17" height="0.29"/>
</g>
<g>
	<path class="st2" d="M31.88,32.57v-0.15c0-0.17-0.06-0.28-0.18-0.35c-0.12-0.07-0.33-0.1-0.63-0.1c-0.3,0-0.51,0.03-0.63,0.1
		c-0.12,0.07-0.18,0.18-0.18,0.35v0.15H31.88z M32.16,32.87h-2.17v-0.39c0-0.3,0.08-0.5,0.24-0.62c0.16-0.12,0.44-0.18,0.84-0.18
		c0.4,0,0.68,0.06,0.84,0.18c0.16,0.12,0.24,0.33,0.24,0.62V32.87z"/>
</g>
<g>
	<path class="st2" d="M30.55,30.52l0.94,0.2v-0.39L30.55,30.52z M32.16,31.16l-2.17-0.51v-0.28l2.17-0.51v0.29l-0.43,0.11v0.49
		l0.43,0.1V31.16z"/>
</g>
<g>
	<path class="st2" d="M31.88,28.94v-0.15c0-0.16-0.06-0.28-0.18-0.35c-0.12-0.07-0.33-0.1-0.63-0.1c-0.3,0-0.51,0.03-0.63,0.1
		c-0.12,0.07-0.18,0.18-0.18,0.35v0.15H31.88z M32.16,29.24h-2.17v-0.39c0-0.29,0.08-0.5,0.24-0.62c0.16-0.12,0.44-0.18,0.84-0.18
		c0.4,0,0.68,0.06,0.84,0.18c0.16,0.12,0.24,0.33,0.24,0.62V29.24z"/>
</g>
<g>
	<path class="st2" d="M31.88,26v-0.15c0-0.16-0.06-0.28-0.18-0.35c-0.12-0.07-0.33-0.1-0.63-0.1c-0.3,0-0.51,0.03-0.63,0.1
		c-0.12,0.07-0.18,0.18-0.18,0.35V26H31.88z M32.16,26.3h-2.17v-0.39c0-0.29,0.08-0.5,0.24-0.62c0.16-0.12,0.44-0.18,0.84-0.18
		c0.4,0,0.68,0.06,0.84,0.18c0.16,0.12,0.24,0.33,0.24,0.62V26.3z"/>
</g>
<g>
	<polygon points="32.16,24.38 29.99,24.38 29.99,23.52 30.25,23.52 30.25,24.09 30.89,24.09 30.89,23.56 31.15,23.56 31.15,24.09 
		31.89,24.09 31.89,23.52 32.16,23.52 	"/>
</g>
<g>
	<polygon points="32.16,21.8 29.99,21.8 29.99,20.93 30.25,20.93 30.25,21.5 30.89,21.5 30.89,20.98 31.15,20.98 31.15,21.5 
		31.89,21.5 31.89,20.93 32.16,20.93 	"/>
</g>
<g>
	<polygon points="32.16,20.36 31.05,19.96 29.99,20.34 29.99,20.05 30.7,19.81 29.99,19.58 29.99,19.28 31.05,19.66 32.16,19.26 
		32.16,19.57 31.4,19.81 32.16,20.06 	"/>
</g>
<g>
	<polygon points="32.16,18.38 30.26,18.38 30.26,18.78 29.99,18.78 29.99,17.68 30.26,17.68 30.26,18.08 32.16,18.08 	"/>
</g>
<g>
	<path class="st2" d="M30.93,16.74v-0.09c0-0.12-0.03-0.2-0.08-0.25c-0.06-0.05-0.15-0.07-0.29-0.07c-0.12,0-0.2,0.02-0.24,0.07
		c-0.04,0.05-0.07,0.13-0.07,0.26v0.08H30.93z M31.1,16.74h1.06v0.29h-2.17v-0.35c0-0.23,0.04-0.4,0.13-0.5
		c0.09-0.1,0.23-0.15,0.44-0.15c0.16,0,0.29,0.03,0.38,0.1c0.09,0.07,0.14,0.17,0.16,0.31l1.07-0.51v0.31L31.1,16.74L31.1,16.74z"/>
</g>
<g>
	<polygon points="32.16,15.31 29.99,15.31 29.99,14.44 30.25,14.44 30.25,15.01 30.89,15.01 30.89,14.49 31.15,14.49 31.15,15.01 
		31.89,15.01 31.89,14.44 32.16,14.44 	"/>
</g>
<g>
	<polygon points="32.16,13.8 29.99,13.61 29.99,13.35 31.49,13.05 29.99,12.75 29.99,12.5 32.16,12.31 32.16,12.58 30.63,12.67 
		32.16,12.96 32.16,13.15 30.63,13.44 32.16,13.53 	"/>
</g>
<g>
	<path class="st2" d="M30.55,11.12l0.94,0.2v-0.39L30.55,11.12z M32.16,11.76l-2.17-0.51v-0.27l2.17-0.51v0.3l-0.43,0.1v0.49
		l0.43,0.1V11.76z"/>
</g>
<g>
	<path class="st2" d="M31.88,9.54V9.39c0-0.16-0.06-0.28-0.18-0.35c-0.12-0.07-0.33-0.1-0.63-0.1c-0.3,0-0.51,0.03-0.63,0.1
		c-0.12,0.07-0.18,0.18-0.18,0.35v0.15H31.88z M32.16,9.84h-2.17V9.45c0-0.3,0.08-0.5,0.24-0.62c0.16-0.12,0.44-0.18,0.84-0.18
		c0.4,0,0.68,0.06,0.84,0.18c0.16,0.12,0.24,0.33,0.24,0.62V9.84z"/>
</g>
<g>
	<path d="M31.57,7.93h-1.59V7.65h1.62c0.1,0,0.18-0.02,0.23-0.07c0.05-0.05,0.07-0.12,0.07-0.21c0-0.1-0.03-0.17-0.07-0.21
		c-0.05-0.05-0.13-0.07-0.23-0.07h-1.62V6.79h1.59c0.21,0,0.36,0.05,0.46,0.14c0.1,0.09,0.14,0.24,0.14,0.44
		c0,0.2-0.05,0.34-0.14,0.43C31.93,7.89,31.78,7.93,31.57,7.93"/>
</g>
<g>
	<path class="st2" d="M30.93,5.71V5.62c0-0.12-0.03-0.2-0.08-0.25c-0.06-0.05-0.15-0.07-0.29-0.07c-0.12,0-0.2,0.02-0.24,0.07
		c-0.04,0.05-0.07,0.14-0.07,0.26v0.08H30.93z M31.1,5.71h1.06V6h-2.17V5.65c0-0.23,0.04-0.4,0.13-0.5C30.2,5.05,30.35,5,30.55,5
		c0.16,0,0.29,0.03,0.38,0.1c0.09,0.07,0.14,0.17,0.16,0.31l1.07-0.51V5.2L31.1,5.71L31.1,5.71z"/>
</g>
<g>
	<path class="st2" d="M30.55,3.79l0.94,0.2V3.59L30.55,3.79z M32.16,4.43l-2.17-0.51V3.65l2.17-0.51v0.3l-0.43,0.1v0.49l0.43,0.1
		V4.43z"/>
</g>
</svg>
